<svg width="40" height="40" viewBox="0 0 40 40" fill="none" xmlns="http://www.w3.org/2000/svg">
<path d="M28.3334 35C28.7754 35 29.1994 34.8245 29.5119 34.5119C29.8245 34.1993 30.0001 33.7754 30.0001 33.3334V24.4167C30.0001 23.655 30.5267 23.01 31.2117 22.6817C32.63 22.0051 33.7637 20.8493 34.4128 19.4182C35.0618 17.9871 35.1845 16.3727 34.7591 14.86C34.3337 13.3472 33.3877 12.0334 32.0879 11.1503C30.7881 10.2672 29.2181 9.87162 27.6551 10.0334C27.0113 8.53706 25.9432 7.26221 24.5827 6.36644C23.2222 5.47068 21.629 4.99329 20.0001 4.99329C18.3712 4.99329 16.778 5.47068 15.4175 6.36644C14.057 7.26221 12.9888 8.53706 12.3451 10.0334C10.7827 9.87275 9.21381 10.2689 7.91497 11.1519C6.61613 12.035 5.67076 13.3483 5.24555 14.8602C4.82034 16.3722 4.94259 17.9857 5.59075 19.4163C6.23891 20.8469 7.37135 22.0028 8.78841 22.68C9.47341 23.01 10.0001 23.655 10.0001 24.415V33.3334C10.0001 33.7754 10.1757 34.1993 10.4882 34.5119C10.8008 34.8245 11.2247 35 11.6667 35H28.3334Z" stroke="#00A63E" stroke-width="3.33333" stroke-linecap="round" stroke-linejoin="round"/>
<path d="M10 28.3334H30" stroke="#00A63E" stroke-width="3.33333" stroke-linecap="round" stroke-linejoin="round"/>
</svg>
